<?xml version="1.0" encoding="UTF-8"?>
<svg width="64px" height="64px" viewBox="0 0 64 64" version="1.1" xmlns="http://www.w3.org/2000/svg" xmlns:xlink="http://www.w3.org/1999/xlink">
    <title>apollo-water-white</title>
    <g id="_PWA---Local" stroke="none" stroke-width="1" fill="none" fill-rule="evenodd">
        <g id="COSITES" transform="translate(-17799.000000, -7909.000000)" fill="#FFFFFF" fill-rule="nonzero">
            <g id="apollo-water-white" transform="translate(17799.000000, 7909.000000)">
                <path d="M32.0014816,0 C32.0014816,0 0.00740775036,58.0101151 0,58 C8.15593315,54.264637 17.1089402,51.9135981 26.5419695,51.2546714 C27.7923978,47.7880811 28.4353905,43.3995715 28.4353905,39.8231601 C28.4353905,39.8231601 25.3774712,39.9358712 22.4928932,40.2754497 L24.8692995,33.6572824 C29.6221121,33.6572824 28.433909,24.2271164 32,19.7302307 C35.5646095,24.2271164 34.3764063,33.6572824 39.1307005,33.6572824 L41.5071068,40.2754497 C38.6240104,39.9373163 35.5646095,39.8231601 35.5646095,39.8231601 C35.5646095,43.3995715 36.2076022,47.7880811 37.4580305,51.2546714 C46.8910598,51.9135981 55.8440669,54.264637 64,58 C63.9955553,58.0101151 32.0014816,0 32.0014816,0 Z" id="container" opacity="0.419130598"></path>
                <path d="M41.4365147,59.2098476 C47.7136971,60.0342321 53.7182805,61.6689332 59.3302623,64 C61.0621542,62.3385698 62.6266349,60.519578 64,58.5669402 C55.8442557,54.9303634 46.8914558,52.6400938 37.4586449,52 C38.4186671,54.5927315 39.7446237,56.9955451 41.4365147,59.2098476 Z M26.5413551,52 C17.1085442,52.6415006 8.15574435,54.9303634 0,58.5669402 C1.37336512,60.5181712 2.93784578,62.337163 4.66973773,64 C10.2817195,61.6689332 16.2863029,60.0342321 22.5634853,59.2098476 C24.2538948,56.9955451 25.5798514,54.5927315 26.5413551,52 Z" id="container" opacity="0.23428708"></path>
            </g>
        </g>
    </g>
</svg>