<?xml version="1.0" encoding="UTF-8"?>
<svg width="1440px" height="863px" viewBox="0 0 1440 863" version="1.1" xmlns="http://www.w3.org/2000/svg" xmlns:xlink="http://www.w3.org/1999/xlink">
    <title>bgd-main</title>
    <defs>
        <linearGradient x1="53.8194444%" y1="2.86444551%" x2="53.8194444%" y2="100%" id="linearGradient-1">
            <stop stop-color="#070032" offset="0%"></stop>
            <stop stop-color="#332973" offset="100%"></stop>
        </linearGradient>
    </defs>
    <g id="_PWA---Local" stroke="none" stroke-width="1" fill="none" fill-rule="evenodd">
        <g id="COSITES" transform="translate(-19330.000000, -7713.000000)">
            <g id="bgd-main" transform="translate(19329.998818, 7713.000000)">
                <path d="M0.0196130619,1 C33.9516558,10.1914033 67.5876113,19.6956023 100.927182,29.5127743 C588.29913,173.02469 1039.41087,183.638966 1428.24428,131.214663 L1440.00118,129.607735 L1440.00118,862.12878 L0.00118173713,862.12878 L0.0196130619,1 Z" id="Path" fill="url(#linearGradient-1)" fill-rule="nonzero"></path>
                <path d="M1006.63441,160.618658 C1158.13741,160.305809 1302.97331,149.121221 1440.00118,130.15009 L1440.00118,271.445403 C1016.28484,171.518552 535.965483,161.603906 0.00118173713,240.841755 L0.00118173713,0 L0.0191566628,0 L0.0196128626,1.6138818 C31.5275974,10.1440698 62.7802851,18.9438164 93.7774373,28.0132631 L100.92609,30.111 C315.978846,93.4015124 523.971614,130.830323 722.669079,148.396058 C814.947444,156.565189 905.218464,160.438307 993.257336,160.618777 L1006.63441,160.618658 Z" id="Path" fill="#9E54B0" opacity="0.276665097"></path>
                <path d="M0.019,1.6138818 C31.5715756,10.1440698 62.8678596,18.9438164 93.9082517,28.0132631 L101.066877,30.111 C300.430921,88.702556 493.735947,125.13002 679.205995,144.15267 L674.255639,143.6339 L677.740259,143.99541 L681.223119,144.352856 C683.969752,144.638823 686.71172,144.914638 689.451966,145.18666 L690.026048,145.239008 C692.894729,145.523595 695.761458,145.8041 698.62629,146.080457 L698.870743,146.1074 L702.139448,146.420273 L703.487009,146.545637 L707.34702,146.90947 L714.184421,147.543575 L720.643241,148.126308 L728.919663,148.855118 C733.001985,149.209032 737.080996,149.55472 741.15605,149.892081 L743.595366,150.09317 C747.079901,150.378815 750.561569,150.658478 754.040325,150.932089 L758.514445,151.280877 C761.202362,151.488328 763.888843,151.692293 766.573574,151.892663 L771.608944,152.264505 L775.507457,152.546649 L779.403701,152.823839 C781.002001,152.936657 782.599433,153.048085 784.196237,153.158245 C786.977394,153.35001 789.756663,153.538032 792.534024,153.722226 L796.797472,154.002169 L802.966863,154.396732 L810.473588,154.860608 L816.029776,155.192201 L823.755085,155.637057 L825.928924,155.758791 C828.637921,155.909439 831.344604,156.056545 834.049421,156.20005 L838.745729,156.445792 L842.735109,156.64885 L846.72178,156.846773 C848.267052,156.922607 849.811802,156.997178 851.355937,157.07058 C854.148846,157.20325 856.939489,157.332178 859.728111,157.457299 L863.835166,157.638981 L869.891314,157.896869 L877.803903,158.216394 C881.409122,158.357319 885.010362,158.491972 888.608165,158.620327 L892.017699,158.740198 C894.893846,158.839608 897.7672,158.935059 900.638346,159.026509 L905.521886,159.178342 C907.983405,159.25285 910.443149,159.324492 912.90126,159.393209 L917.937672,159.530045 C920.653035,159.601543 923.366671,159.669552 926.078301,159.734012 L930.028636,159.825504 C933.935397,159.913417 937.838141,159.994035 941.736688,160.067344 L944.748207,160.122587 C947.927557,160.179286 951.104898,160.23119 954.279428,160.278262 L958.353192,160.336079 L962.510592,160.389584 L968.882961,160.461045 L971.100327,160.482889 C973.627894,160.506869 976.154168,160.527831 978.678632,160.545754 L983.496975,160.576308 L987.868364,160.597638 L995.27161,160.620001 L1001.44478,160.625384 L1007.98071,160.617947 L1013.72908,160.600258 L1019.73284,160.572988 C1020.83674,160.566643 1021.94029,160.559723 1023.04348,160.552231 L1023.57595,160.545652 L1029.96876,160.497643 C1032.90905,160.47126 1035.8468,160.440813 1038.78198,160.406328 L1040.0163,160.386282 L1041.67407,160.371032 C1108.99508,159.518774 1174.96703,156.543102 1239.48733,151.718955 L1229.08475,155.472406 C877.455614,282.857053 401.608457,494.002326 0,808.75384 L0,1.6138818 L0.019,1.6138818 Z" id="Shape" fill-opacity="0.8" fill="#0768FD" opacity="0.247982207"></path>
                <path d="M0.532696564,1.61374488 L1.50621905,1.61374488 C32.8859308,10.1440698 64.0111074,18.9438164 94.8817911,28.0132631 L102.001277,30.111 C190.415392,56.2380725 277.631297,77.957959 363.492383,95.6926554 C242.347486,157.073048 121.347808,216.927863 0.492383461,275.257218 L0.532696564,1.61374488 Z" id="Path" fill-opacity="0.9" fill="#00C221" opacity="0.203726632"></path>
            </g>
        </g>
    </g>
</svg>