<?xml version="1.0" encoding="UTF-8"?>
<svg width="105px" height="115px" viewBox="0 0 105 115" version="1.1" xmlns="http://www.w3.org/2000/svg" xmlns:xlink="http://www.w3.org/1999/xlink">
    <title>buddy-ball-shadow</title>
    <defs>
        <radialGradient cx="50%" cy="50%" fx="50%" fy="50%" r="50%" gradientTransform="translate(0.500000,0.500000),scale(0.333333,1.000000),rotate(90.000000),scale(1.000000,3.031697),translate(-0.500000,-0.500000)" id="radialGradient-1">
            <stop stop-color="#000000" offset="0%"></stop>
            <stop stop-color="#000000" stop-opacity="0.0993167904" offset="83.4725333%"></stop>
            <stop stop-color="#000000" stop-opacity="0" offset="100%"></stop>
        </radialGradient>
        <circle id="path-2" cx="47" cy="47" r="47"></circle>
        <linearGradient x1="74.6093182%" y1="-5.859375%" x2="6.640625%" y2="106.25%" id="linearGradient-4">
            <stop stop-color="#DF216D" offset="0%"></stop>
            <stop stop-color="#66037E" offset="100%"></stop>
        </linearGradient>
    </defs>
    <g id="_PWA---Local" stroke="none" stroke-width="1" fill="none" fill-rule="evenodd">
        <g id="COSITES" transform="translate(-17661.000000, -7878.000000)">
            <g id="buddy-ball-shadow" transform="translate(17661.000000, 7878.000000)">
                <ellipse id="Oval" fill="url(#radialGradient-1)" opacity="0.351644607" cx="52.5" cy="97.5" rx="52.5" ry="17.5"></ellipse>
                <g id="icon" transform="translate(5.000000, 0.000000)">
                    <g id="Clipped">
                        <mask id="mask-3" fill="white">
                            <use xlink:href="#path-2"></use>
                        </mask>
                        <g id="Oval"></g>
                        <g id="Group" mask="url(#mask-3)">
                            <g transform="translate(-30.109375, -46.265625)">
                                <rect id="Rectangle" fill="url(#linearGradient-4)" fill-rule="nonzero" x="30.109375" y="46.265625" width="94" height="94"></rect>
                                <g id="Group" opacity="0.24" style="mix-blend-mode: overlay;" stroke-width="1" fill="none" fill-rule="evenodd" transform="translate(27.171875, 118.851998)">
                                    <path d="M0,41.2412182 L108.6875,41.2412182 L108.6875,4.94098182 C108.6875,4.94098182 82.6854977,-6.17622727 54.3814568,4.94098182 C26.0774159,16.0580841 0,4.94098182 0,4.94098182 L0,41.2412182 Z" id="Path" fill="#FFFFFF"></path>
                                </g>
                                <g id="Group" opacity="0.24" style="mix-blend-mode: overlay;" stroke-width="1" fill="none" fill-rule="evenodd" transform="translate(0.000000, 118.851998)">
                                    <path d="M138.796875,41.2412182 L0,41.2412182 L0,4.94098182 C0,4.94098182 33.2052223,-6.17622727 69.3502091,4.94098182 C105.495239,16.0580841 138.796875,4.94098182 138.796875,4.94098182 L138.796875,41.2412182 Z" id="Path" fill="#FFFFFF"></path>
                                </g>
                                <g id="Group" opacity="0.48" style="mix-blend-mode: overlay;" stroke-width="1" fill="none" fill-rule="evenodd" transform="translate(14.687500, 0.000000)">
                                    <path d="M0,0 L137.328125,0 L137.328125,63.6856409 C137.328125,63.6856409 104.47427,83.1893591 68.7117568,63.6856409 C32.9492432,44.181912 0,63.6856409 0,63.6856409 L0,0 Z" id="Path" fill="#000000"></path>
                                </g>
                            </g>
                        </g>
                    </g>
                    <path d="M59.1834385,28.1244133 C60.6733837,26.629091 65.4763608,25.5028155 67.8664006,25.0184214 C68.1759996,24.956394 68.4960261,25.0531438 68.7200553,25.2764209 C68.9440846,25.499698 69.0425543,25.8201549 68.982892,26.1312594 C68.502261,28.5279676 67.3799647,33.3482589 65.888192,34.8455163 L44.0984421,56.7116221 C43.9116077,56.8985643 43.6093186,56.8985643 43.4224842,56.7116221 L37.4205636,50.6823879 C37.2343742,50.4949082 37.2343742,50.1915438 37.4205636,50.0039566 C38.7509793,48.6717115 43.794863,43.5978281 48.6995348,38.6641244 C53.7007412,33.6333484 58.5569305,28.7483422 59.1834385,28.1244133 Z M44.6381978,38.7665717 L35.1971482,48.2950322 C34.8724992,48.6227991 34.63127,49.0244184 34.493563,49.4659201 C34.4373406,49.6464123 34.2815737,49.7770245 34.0951693,49.799922 C33.1056349,49.9208593 30.1753019,50.2760386 30.1085446,50.2760386 C29.3150896,50.2736736 28.6008619,49.7912145 28.2978204,49.0529058 C27.9947789,48.3145971 28.1622633,47.4652412 28.7225515,46.8995772 L33.7977177,41.7897888 C35.1165235,40.4450737 36.6795684,39.3679257 38.4019279,38.6168245 C40.3300417,38.1572628 42.3059928,37.9323732 44.2874265,37.9468857 C44.4820008,37.9429082 44.6595903,38.0580405 44.73656,38.2379952 C44.8136373,38.4179499 44.7747224,38.6269295 44.6381978,38.7665717 Z M44.5213457,59.6186319 C44.9912267,59.4842571 45.4192903,59.2315251 45.7647942,58.8844082 L55.1882139,49.4157177 C55.3271034,49.2754304 55.5374803,49.235118 55.7180797,49.3141304 C55.8986791,49.3932502 56.0126287,49.5754624 56.0049963,49.773262 C56.0075762,51.721481 55.7724745,53.6626051 55.304851,55.5533117 C54.5806258,57.306096 53.5271292,58.9024682 52.201981,60.2549233 L47.0924149,65.3891141 C46.4991243,65.986598 45.5940848,66.1405377 44.8381472,65.7724584 C44.0823171,65.4043791 43.641676,64.595228 43.7407907,63.7571595 L44.1750893,60.0261637 C44.1974492,59.8323415 44.3342963,59.6711993 44.5213457,59.6186319 Z M36.0547804,55.1816849 C34.4366957,53.5556428 31.985596,53.8378298 29.9597651,55.8593636 C28.5255047,57.2993236 27.0510394,61.9376178 26.0667726,65.5776687 C25.8869257,66.2426626 26.07634,66.9533438 26.5630985,67.4397804 C27.0498569,67.9263245 27.7593546,68.1139117 28.42209,67.931377 C32.0392384,66.9330263 36.656026,65.435554 38.0844814,64.0052691 C40.1084849,61.9759952 40.3822865,59.5186571 38.7623742,57.8963775 L36.0547804,55.1816849 Z" id="Shape" fill="#FFFFFF"></path>
                </g>
            </g>
        </g>
    </g>
</svg>