<?xml version="1.0" encoding="UTF-8"?>
<svg width="86px" height="26px" viewBox="0 0 86 26" version="1.1" xmlns="http://www.w3.org/2000/svg" xmlns:xlink="http://www.w3.org/1999/xlink">
    <title>logo-iqvia-water-white</title>
    <g id="_PWA---Local" stroke="none" stroke-width="1" fill="none" fill-rule="evenodd">
        <g id="COSITES" transform="translate(-17553.000000, -7910.000000)" fill="#A3A3A3">
            <path d="M17593.205,7921.74 L17592.609,7920.61 C17592.397,7920.2 17591.898,7920.05 17591.494,7920.26 C17591.089,7920.47 17590.933,7920.97 17591.145,7921.37 L17591.665,7922.36 L17591.657,7922.36 C17591.361,7922.43 17591.056,7922.47 17590.742,7922.49 C17587.8,7922.64 17585.28,7920.38 17585.126,7917.45 C17584.972,7914.52 17587.24,7912.01 17590.183,7911.86 C17593.126,7911.7 17595.645,7913.96 17595.799,7916.89 C17595.906,7918.93 17594.846,7920.76 17593.205,7921.74 Z M17590.096,7910.21 C17586.244,7910.41 17583.274,7913.7 17583.475,7917.54 C17583.677,7921.38 17586.976,7924.33 17590.829,7924.13 C17591.389,7924.1 17591.929,7924.01 17592.445,7923.86 L17592.451,7923.85 L17592.975,7924.85 C17593.187,7925.25 17593.686,7925.41 17594.091,7925.2 C17594.495,7924.99 17594.651,7924.49 17594.439,7924.09 L17593.972,7923.2 C17596.167,7921.93 17597.591,7919.5 17597.45,7916.81 C17597.248,7912.97 17593.949,7910.01 17590.096,7910.21 Z M17633.692,7935.1 C17633.563,7935 17633.47,7934.85 17633.47,7934.66 C17633.47,7934.37 17633.71,7934.14 17634.006,7934.14 C17634.164,7934.14 17634.265,7934.18 17634.34,7934.24 C17634.876,7934.66 17635.45,7934.9 17636.153,7934.9 C17636.856,7934.9 17637.3,7934.57 17637.3,7934.09 L17637.3,7934.07 C17637.3,7933.61 17637.041,7933.36 17635.838,7933.09 C17634.46,7932.75 17633.683,7932.35 17633.683,7931.16 L17633.683,7931.14 C17633.683,7930.03 17634.608,7929.27 17635.894,7929.27 C17636.708,7929.27 17637.365,7929.48 17637.948,7929.87 C17638.077,7929.94 17638.198,7930.1 17638.198,7930.32 C17638.198,7930.62 17637.957,7930.85 17637.661,7930.85 C17637.55,7930.85 17637.457,7930.82 17637.365,7930.76 C17636.865,7930.44 17636.384,7930.27 17635.875,7930.27 C17635.209,7930.27 17634.821,7930.62 17634.821,7931.04 L17634.821,7931.06 C17634.821,7931.56 17635.117,7931.78 17636.366,7932.07 C17637.735,7932.4 17638.438,7932.89 17638.438,7933.96 L17638.438,7933.98 C17638.438,7935.19 17637.485,7935.91 17636.125,7935.91 C17635.246,7935.91 17634.414,7935.63 17633.692,7935.1 Z M17627.242,7935.24 L17627.242,7929.93 C17627.242,7929.61 17627.492,7929.36 17627.816,7929.36 L17631.581,7929.36 C17631.859,7929.36 17632.09,7929.59 17632.09,7929.87 C17632.09,7930.15 17631.859,7930.38 17631.581,7930.38 L17628.381,7930.38 L17628.381,7932.05 L17631.165,7932.05 C17631.443,7932.05 17631.674,7932.28 17631.674,7932.57 C17631.674,7932.85 17631.443,7933.07 17631.165,7933.07 L17628.381,7933.07 L17628.381,7934.8 L17631.628,7934.8 C17631.905,7934.8 17632.137,7935.03 17632.137,7935.31 C17632.137,7935.59 17631.905,7935.81 17631.628,7935.81 L17627.816,7935.81 C17627.492,7935.81 17627.242,7935.57 17627.242,7935.24 Z M17623.958,7929.88 C17623.958,7929.56 17624.208,7929.32 17624.531,7929.32 C17624.846,7929.32 17625.096,7929.56 17625.096,7929.88 L17625.096,7935.3 C17625.096,7935.61 17624.846,7935.86 17624.531,7935.86 C17624.208,7935.86 17623.958,7935.61 17623.958,7935.3 L17623.958,7929.88 Z M17615.935,7932.61 L17615.935,7932.59 C17615.935,7930.78 17617.323,7929.25 17619.275,7929.25 C17620.247,7929.25 17620.894,7929.48 17621.486,7929.91 C17621.597,7929.99 17621.718,7930.15 17621.718,7930.37 C17621.718,7930.67 17621.468,7930.93 17621.153,7930.93 C17621.005,7930.93 17620.894,7930.86 17620.802,7930.8 C17620.385,7930.5 17619.932,7930.29 17619.229,7930.29 C17618.035,7930.29 17617.129,7931.33 17617.129,7932.57 L17617.129,7932.59 C17617.129,7933.92 17618.008,7934.89 17619.331,7934.89 C17619.941,7934.89 17620.496,7934.7 17620.894,7934.4 L17620.894,7933.2 L17619.617,7933.2 C17619.34,7933.2 17619.109,7932.98 17619.109,7932.71 C17619.109,7932.43 17619.34,7932.21 17619.617,7932.21 L17621.421,7932.21 C17621.745,7932.21 17621.995,7932.46 17621.995,7932.78 L17621.995,7934.51 C17621.995,7934.83 17621.865,7935.06 17621.597,7935.22 C17621.042,7935.59 17620.265,7935.92 17619.294,7935.92 C17617.267,7935.92 17615.935,7934.49 17615.935,7932.61 Z M17613.233,7932.61 L17613.233,7932.59 C17613.233,7931.33 17612.317,7930.29 17611.031,7930.29 C17609.745,7930.29 17608.847,7931.32 17608.847,7932.57 L17608.847,7932.59 C17608.847,7933.84 17609.763,7934.87 17611.049,7934.87 C17612.335,7934.87 17613.233,7933.86 17613.233,7932.61 Z M17607.654,7932.61 L17607.654,7932.59 C17607.654,7930.77 17609.06,7929.25 17611.049,7929.25 C17613.038,7929.25 17614.426,7930.75 17614.426,7932.57 L17614.426,7932.59 C17614.426,7934.4 17613.02,7935.92 17611.031,7935.92 C17609.042,7935.92 17607.654,7934.42 17607.654,7932.61 Z M17602.167,7929.88 C17602.167,7929.56 17602.416,7929.32 17602.74,7929.32 C17603.055,7929.32 17603.305,7929.56 17603.305,7929.88 L17603.305,7934.78 L17606.237,7934.78 C17606.524,7934.78 17606.755,7935.01 17606.755,7935.3 C17606.755,7935.58 17606.524,7935.81 17606.237,7935.81 L17602.74,7935.81 C17602.416,7935.81 17602.167,7935.57 17602.167,7935.24 L17602.167,7929.88 Z M17599.177,7932.61 L17599.177,7932.59 C17599.177,7931.33 17598.261,7930.29 17596.975,7930.29 C17595.689,7930.29 17594.792,7931.32 17594.792,7932.57 L17594.792,7932.59 C17594.792,7933.84 17595.708,7934.87 17596.994,7934.87 C17598.28,7934.87 17599.177,7933.86 17599.177,7932.61 Z M17593.598,7932.61 L17593.598,7932.59 C17593.598,7930.77 17595.005,7929.25 17596.994,7929.25 C17598.983,7929.25 17600.371,7930.75 17600.371,7932.57 L17600.371,7932.59 C17600.371,7934.4 17598.965,7935.92 17596.975,7935.92 C17594.986,7935.92 17593.598,7934.42 17593.598,7932.61 Z M17586.159,7929.9 C17586.159,7929.58 17586.409,7929.33 17586.733,7929.33 L17586.853,7929.33 C17587.13,7929.33 17587.287,7929.46 17587.445,7929.66 L17590.683,7933.83 L17590.683,7929.87 C17590.683,7929.56 17590.933,7929.32 17591.238,7929.32 C17591.553,7929.32 17591.802,7929.56 17591.802,7929.87 L17591.802,7935.29 C17591.802,7935.6 17591.562,7935.85 17591.247,7935.85 L17591.201,7935.85 C17590.933,7935.85 17590.766,7935.71 17590.609,7935.51 L17587.278,7931.21 L17587.278,7935.31 C17587.278,7935.61 17587.029,7935.86 17586.723,7935.86 C17586.409,7935.86 17586.159,7935.61 17586.159,7935.31 L17586.159,7929.9 Z M17578.71,7929.88 C17578.71,7929.56 17578.96,7929.32 17579.284,7929.32 C17579.598,7929.32 17579.848,7929.56 17579.848,7929.88 L17579.848,7932.04 L17582.938,7932.04 L17582.938,7929.88 C17582.938,7929.56 17583.188,7929.32 17583.503,7929.32 C17583.826,7929.32 17584.076,7929.56 17584.076,7929.88 L17584.076,7935.3 C17584.076,7935.61 17583.826,7935.86 17583.503,7935.86 C17583.188,7935.86 17582.938,7935.61 17582.938,7935.3 L17582.938,7933.1 L17579.848,7933.1 L17579.848,7935.3 C17579.848,7935.61 17579.598,7935.86 17579.284,7935.86 C17578.96,7935.86 17578.71,7935.61 17578.71,7935.3 L17578.71,7929.88 Z M17571.178,7932.61 L17571.178,7932.59 C17571.178,7930.75 17572.557,7929.25 17574.518,7929.25 C17575.517,7929.25 17576.174,7929.55 17576.739,7929.98 C17576.859,7930.07 17576.961,7930.23 17576.961,7930.43 C17576.961,7930.74 17576.711,7930.98 17576.396,7930.98 C17576.239,7930.98 17576.128,7930.93 17576.054,7930.87 C17575.61,7930.51 17575.129,7930.29 17574.509,7930.29 C17573.278,7930.29 17572.372,7931.31 17572.372,7932.57 L17572.372,7932.59 C17572.372,7933.85 17573.269,7934.87 17574.509,7934.87 C17575.193,7934.87 17575.656,7934.65 17576.128,7934.26 C17576.211,7934.18 17576.331,7934.13 17576.47,7934.13 C17576.757,7934.13 17577.007,7934.37 17577.007,7934.65 C17577.007,7934.83 17576.923,7934.97 17576.822,7935.06 C17576.211,7935.59 17575.517,7935.92 17574.472,7935.92 C17572.584,7935.92 17571.178,7934.46 17571.178,7932.61 Z M17564.849,7935.24 L17564.849,7929.93 C17564.849,7929.61 17565.099,7929.36 17565.423,7929.36 L17569.188,7929.36 C17569.466,7929.36 17569.697,7929.59 17569.697,7929.87 C17569.697,7930.15 17569.466,7930.38 17569.188,7930.38 L17565.987,7930.38 L17565.987,7932.05 L17568.772,7932.05 C17569.049,7932.05 17569.281,7932.28 17569.281,7932.57 C17569.281,7932.85 17569.049,7933.07 17568.772,7933.07 L17565.987,7933.07 L17565.987,7934.8 L17569.234,7934.8 C17569.512,7934.8 17569.743,7935.03 17569.743,7935.31 C17569.743,7935.59 17569.512,7935.81 17569.234,7935.81 L17565.423,7935.81 C17565.099,7935.81 17564.849,7935.57 17564.849,7935.24 Z M17560.028,7930.41 L17558.455,7930.41 C17558.159,7930.41 17557.928,7930.17 17557.928,7929.89 C17557.928,7929.6 17558.159,7929.36 17558.455,7929.36 L17562.757,7929.36 C17563.044,7929.36 17563.275,7929.6 17563.275,7929.89 C17563.275,7930.17 17563.044,7930.41 17562.757,7930.41 L17561.175,7930.41 L17561.175,7935.3 C17561.175,7935.61 17560.916,7935.86 17560.601,7935.86 C17560.287,7935.86 17560.028,7935.61 17560.028,7935.3 L17560.028,7930.41 Z M17578.522,7923.28 C17578.522,7923.74 17578.892,7924.1 17579.348,7924.1 C17579.805,7924.1 17580.175,7923.74 17580.175,7923.28 L17580.175,7911.06 C17580.175,7910.61 17579.805,7910.24 17579.348,7910.24 C17578.892,7910.24 17578.522,7910.61 17578.522,7911.06 L17578.522,7923.28 Z M17618.587,7924.1 C17618.131,7924.1 17617.761,7923.74 17617.761,7923.28 L17617.761,7911.06 C17617.761,7910.61 17618.131,7910.24 17618.587,7910.24 C17619.043,7910.24 17619.413,7910.61 17619.413,7911.06 L17619.413,7923.28 C17619.413,7923.74 17619.043,7924.1 17618.587,7924.1 Z M17606.811,7924.1 L17606.814,7924.1 C17607.119,7924.1 17607.4,7923.94 17607.543,7923.67 L17614.087,7911.45 C17614.301,7911.05 17614.149,7910.55 17613.746,7910.34 C17613.344,7910.12 17612.843,7910.27 17612.628,7910.68 L17606.821,7921.52 L17601.126,7910.68 C17600.914,7910.28 17600.415,7910.12 17600.011,7910.33 C17599.606,7910.55 17599.45,7911.04 17599.662,7911.45 L17606.082,7923.66 C17606.224,7923.93 17606.505,7924.1 17606.811,7924.1 Z M17633.026,7921.33 L17629.043,7921.33 C17628.587,7921.33 17628.217,7920.96 17628.217,7920.51 C17628.217,7920.05 17628.587,7919.69 17629.043,7919.69 L17633.026,7919.69 C17633.483,7919.69 17633.853,7920.05 17633.853,7920.51 C17633.853,7920.96 17633.483,7921.33 17633.026,7921.33 Z M17636.766,7923.66 C17636.914,7923.94 17637.201,7924.1 17637.499,7924.1 C17637.628,7924.1 17637.76,7924.07 17637.882,7924.01 C17638.286,7923.8 17638.442,7923.3 17638.231,7922.9 L17631.81,7910.68 C17631.668,7910.41 17631.387,7910.24 17631.081,7910.24 C17630.774,7910.23 17630.493,7910.41 17630.349,7910.68 L17623.806,7922.89 C17623.591,7923.29 17623.743,7923.79 17624.146,7924.01 C17624.548,7924.22 17625.049,7924.07 17625.264,7923.67 L17631.071,7912.83 L17636.766,7923.66 Z M17568.368,7921.81 L17558.256,7921.81 C17557.869,7921.81 17557.552,7922.13 17557.552,7922.51 C17557.552,7922.9 17557.869,7923.21 17558.256,7923.21 L17568.368,7923.21 C17568.755,7923.21 17569.071,7922.9 17569.071,7922.51 C17569.071,7922.13 17568.755,7921.81 17568.368,7921.81 Z M17570.092,7922.51 C17570.092,7922.9 17570.409,7923.21 17570.796,7923.21 L17573.73,7923.21 C17574.117,7923.21 17574.434,7922.9 17574.434,7922.51 C17574.434,7922.13 17574.117,7921.81 17573.73,7921.81 L17570.796,7921.81 C17570.409,7921.81 17570.092,7922.13 17570.092,7922.51 Z M17572.169,7920.54 C17571.782,7920.54 17571.466,7920.23 17571.466,7919.84 C17571.466,7919.46 17571.782,7919.14 17572.169,7919.14 L17573.73,7919.14 C17574.117,7919.14 17574.434,7919.46 17574.434,7919.84 C17574.434,7920.23 17574.117,7920.54 17573.73,7920.54 L17572.169,7920.54 Z M17571.86,7917.17 C17571.86,7917.56 17572.177,7917.87 17572.563,7917.87 L17573.73,7917.87 C17574.117,7917.87 17574.434,7917.56 17574.434,7917.17 C17574.434,7916.79 17574.117,7916.47 17573.73,7916.47 L17572.563,7916.47 C17572.177,7916.47 17571.86,7916.79 17571.86,7917.17 Z M17572.193,7915.2 C17571.806,7915.2 17571.489,7914.89 17571.489,7914.5 C17571.489,7914.11 17571.806,7913.8 17572.193,7913.8 L17573.73,7913.8 C17574.117,7913.8 17574.434,7914.11 17574.434,7914.5 C17574.434,7914.89 17574.117,7915.2 17573.73,7915.2 L17572.193,7915.2 Z M17570.154,7911.83 C17570.154,7912.21 17570.47,7912.53 17570.857,7912.53 L17573.73,7912.53 C17574.117,7912.53 17574.434,7912.21 17574.434,7911.83 C17574.434,7911.44 17574.117,7911.13 17573.73,7911.13 L17570.857,7911.13 C17570.47,7911.13 17570.154,7911.44 17570.154,7911.83 Z M17569.742,7919.14 L17556.276,7919.14 C17555.889,7919.14 17555.573,7919.46 17555.573,7919.84 C17555.573,7920.23 17555.889,7920.54 17556.276,7920.54 L17569.742,7920.54 C17570.129,7920.54 17570.445,7920.23 17570.445,7919.84 C17570.445,7919.46 17570.129,7919.14 17569.742,7919.14 Z M17554.28,7916.47 L17570.136,7916.47 C17570.523,7916.47 17570.84,7916.79 17570.84,7917.17 C17570.84,7917.56 17570.523,7917.87 17570.136,7917.87 L17554.28,7917.87 C17553.893,7917.87 17553.577,7917.56 17553.577,7917.17 C17553.577,7916.79 17553.893,7916.47 17554.28,7916.47 Z M17569.766,7913.8 L17555.278,7913.8 C17554.891,7913.8 17554.575,7914.11 17554.575,7914.5 C17554.575,7914.89 17554.891,7915.2 17555.278,7915.2 L17569.766,7915.2 C17570.152,7915.2 17570.469,7914.89 17570.469,7914.5 C17570.469,7914.11 17570.152,7913.8 17569.766,7913.8 Z M17560.372,7911.13 L17568.43,7911.13 C17568.816,7911.13 17569.133,7911.44 17569.133,7911.83 C17569.133,7912.21 17568.816,7912.53 17568.43,7912.53 L17560.372,7912.53 C17559.985,7912.53 17559.668,7912.21 17559.668,7911.83 C17559.668,7911.44 17559.985,7911.13 17560.372,7911.13 Z" id="logo-iqvia-water-white"></path>
        </g>
    </g>
</svg>