<?xml version="1.0" encoding="UTF-8"?>
<svg width="333px" height="56px" viewBox="0 0 333 56" version="1.1" xmlns="http://www.w3.org/2000/svg"
    xmlns:xlink="http://www.w3.org/1999/xlink">
    <title>logo-buddy-grad-left-right</title>
    <defs>
        <linearGradient x1="99.9536806%" y1="55.6235682%" x2="0.0962481277%" y2="55.6235682%" id="linearGradient-lr">
            <stop stop-color="#DF216D" offset="30%"></stop>
            <stop stop-color="#80009F" offset="100%"></stop>
        </linearGradient>
    </defs>
    <g id="_PWA---Local" stroke="none" stroke-width="1" fill="none" fill-rule="evenodd">
        <g id="COSITES" transform="translate(-17504.000000, -8045.000000)" fill="url(#linearGradient-lr)"
            fill-rule="nonzero">
            <path
                d="M17537.984,8088.328 L17548.352,8088.328 L17531.904,8045.64 L17520.512,8045.64 L17504,8088.328 L17514.368,8088.328 L17517.056,8081.096 L17535.36,8081.096 L17537.984,8088.328 Z M17526.208,8054.728 L17532.864,8073.096 L17519.552,8073.096 L17526.208,8054.728 Z M17552.294,8088.328 L17569.126,8088.328 C17582.502,8088.328 17591.782,8079.88 17591.782,8067.016 C17591.782,8054.152 17582.502,8045.64 17569.126,8045.64 L17552.294,8045.64 L17552.294,8088.328 Z M17561.382,8080.328 L17561.382,8053.64 L17569.126,8053.64 C17577.894,8053.64 17582.502,8059.464 17582.502,8067.016 C17582.502,8074.248 17577.574,8080.328 17569.126,8080.328 L17561.382,8080.328 Z M17595.352,8082.312 C17599.32,8086.344 17605.208,8089.096 17613.4,8089.096 C17624.92,8089.096 17630.488,8083.208 17630.488,8075.4 C17630.488,8065.736 17621.528,8063.624 17614.488,8061.96 C17609.88,8060.872 17605.976,8059.976 17605.976,8057.224 C17605.976,8054.664 17608.152,8052.936 17612.056,8052.936 C17616.408,8052.936 17621.016,8054.408 17624.472,8057.608 L17629.528,8050.952 C17625.304,8047.048 17619.672,8045 17612.888,8045 C17602.84,8045 17596.696,8050.888 17596.696,8057.992 C17596.696,8067.72 17605.656,8069.64 17612.632,8071.24 C17617.304,8072.392 17621.272,8073.288 17621.272,8076.424 C17621.272,8078.856 17618.84,8081.16 17613.848,8081.16 C17607.96,8081.16 17603.288,8078.536 17600.28,8075.4 L17595.352,8082.312 Z M17652.981,8088.328 L17676.15,8088.328 C17684.278,8088.328 17688.566,8083.208 17688.566,8076.808 C17688.566,8071.432 17684.917,8067.016 17680.374,8066.312 C17684.406,8065.48 17687.734,8061.896 17687.734,8056.52 C17687.734,8050.824 17683.574,8045.64 17675.446,8045.64 L17652.981,8045.64 L17652.981,8088.328 Z M17662.07,8062.728 L17662.07,8053.448 L17673.462,8053.448 C17676.534,8053.448 17678.454,8055.432 17678.454,8058.12 C17678.454,8060.808 17676.534,8062.728 17673.462,8062.728 L17662.07,8062.728 Z M17662.07,8080.456 L17662.07,8070.536 L17673.782,8070.536 C17677.366,8070.536 17679.286,8072.84 17679.286,8075.528 C17679.286,8078.6 17677.238,8080.456 17673.782,8080.456 L17662.07,8080.456 Z M17716.091,8088.328 L17724.219,8088.328 L17724.219,8057.416 L17716.091,8057.416 L17716.091,8078.344 C17714.683,8080.136 17712.187,8081.864 17709.051,8081.864 C17705.595,8081.864 17703.355,8080.456 17703.355,8076.168 L17703.355,8057.416 L17695.227,8057.416 L17695.227,8079.368 C17695.227,8085.384 17698.427,8089.096 17705.211,8089.096 C17710.267,8089.096 17713.979,8086.792 17716.091,8084.424 L17716.091,8088.328 Z M17753.538,8088.328 L17761.73,8088.328 L17761.73,8045.64 L17753.538,8045.64 L17753.538,8061.384 C17751.106,8058.248 17747.65,8056.648 17744.002,8056.648 C17736.13,8056.648 17730.306,8062.792 17730.306,8072.904 C17730.306,8083.208 17736.194,8089.096 17744.002,8089.096 C17747.714,8089.096 17751.106,8087.432 17753.538,8084.36 L17753.538,8088.328 Z M17753.538,8078.344 C17752.194,8080.392 17749.25,8081.864 17746.498,8081.864 C17741.89,8081.864 17738.69,8078.216 17738.69,8072.904 C17738.69,8067.528 17741.89,8063.88 17746.498,8063.88 C17749.25,8063.88 17752.194,8065.352 17753.538,8067.4 L17753.538,8078.344 Z M17791.038,8088.328 L17799.23,8088.328 L17799.23,8045.64 L17791.038,8045.64 L17791.038,8061.384 C17788.606,8058.248 17785.15,8056.648 17781.502,8056.648 C17773.63,8056.648 17767.806,8062.792 17767.806,8072.904 C17767.806,8083.208 17773.694,8089.096 17781.502,8089.096 C17785.214,8089.096 17788.606,8087.432 17791.038,8084.36 L17791.038,8088.328 Z M17791.038,8078.344 C17789.694,8080.392 17786.75,8081.864 17783.998,8081.864 C17779.39,8081.864 17776.19,8078.216 17776.19,8072.904 C17776.19,8067.528 17779.39,8063.88 17783.998,8063.88 C17786.75,8063.88 17789.694,8065.352 17791.038,8067.4 L17791.038,8078.344 Z M17807.418,8093.128 L17806.202,8100.424 C17807.226,8100.68 17809.274,8100.872 17810.234,8100.872 C17815.546,8100.744 17819.642,8099.208 17821.946,8093.384 L17836.474,8057.416 L17827.706,8057.416 L17819.642,8078.92 L17811.578,8057.416 L17802.873,8057.416 L17815.418,8088.776 L17814.266,8091.4 C17813.498,8093.064 17812.09,8093.64 17809.978,8093.64 C17809.21,8093.64 17808.122,8093.448 17807.418,8093.128 Z"
                id="logo-buddy-grad-left-right"></path>
        </g>
    </g>
</svg>