<?xml version="1.0" encoding="UTF-8"?>
<svg width="64px" height="64px" viewBox="0 0 64 64" version="1.1" xmlns="http://www.w3.org/2000/svg" xmlns:xlink="http://www.w3.org/1999/xlink">
    <title>ico-green</title>
    <g id="_PWA---Local" stroke="none" stroke-width="1" fill="none" fill-rule="evenodd">
        <g id="COSITES" transform="translate(-17682.000000, -7771.000000)" fill="#00C221" fill-rule="nonzero">
            <g id="ico-green" transform="translate(17682.000000, 7771.000000)">
                <circle id="Oval" opacity="0.1" cx="32" cy="32" r="32"></circle>
                <path d="M34.271,22.824 L42.176,22.824 L42.176,36.941 L32.294,36.941 L31.729,34.118 L23.824,34.118 L23.824,44 L21,44 L21,20 L33.706,20 L34.271,22.824 Z M33.706,34.118 L36.529,34.118 L36.529,31.294 L39.353,31.294 L39.353,28.471 L36.529,28.471 L36.529,25.647 L33.706,25.647 L33.706,28.471 L32.294,25.647 L32.294,22.824 L29.471,22.824 L29.471,25.647 L26.647,25.647 L26.647,22.824 L23.824,22.824 L23.824,25.647 L26.647,25.647 L26.647,28.471 L23.824,28.471 L23.824,31.294 L26.647,31.294 L26.647,28.471 L29.471,28.471 L29.471,31.294 L32.294,31.294 L32.294,28.471 L33.706,31.294 L33.706,34.118 Z M29.471,28.471 L29.471,25.647 L32.294,25.647 L32.294,28.471 L29.471,28.471 Z M33.706,28.471 L36.529,28.471 L36.529,31.294 L33.706,31.294 L33.706,28.471 Z" id="Shape"></path>
            </g>
        </g>
    </g>
</svg>