<?xml version="1.0" encoding="UTF-8"?>
<svg width="64px" height="64px" viewBox="0 0 64 64" version="1.1" xmlns="http://www.w3.org/2000/svg" xmlns:xlink="http://www.w3.org/1999/xlink">
    <title>ico-red</title>
    <g id="_PWA---Local" stroke="none" stroke-width="1" fill="none" fill-rule="evenodd">
        <g id="COSITES" transform="translate(-17982.000000, -7771.000000)" fill="#E20000">
            <g id="ico-red" transform="translate(17982.000000, 7771.000000)">
                <circle id="Oval" fill-rule="nonzero" opacity="0.1" cx="32" cy="32" r="32"></circle>
                <path d="M20,32 C20,25.37 25.373,20 32,20 C38.624,20.01 43.993,25.38 44,32 C44,38.63 38.627,44 32,44 C25.373,44 20,38.63 20,32 Z M41.397,28.89 C41.444,28.83 41.455,28.74 41.428,28.67 L41.428,28.67 C40.415,25.82 38.178,23.59 35.334,22.57 C35.257,22.55 35.172,22.56 35.106,22.6 C35.04,22.65 35,22.73 35,22.81 L35,26.66 C35,26.75 35.047,26.83 35.123,26.88 C35.938,27.38 36.624,28.06 37.123,28.88 C37.169,28.95 37.25,29 37.337,29 L41.193,29 C41.274,29 41.35,28.96 41.397,28.89 Z M32,36 C29.791,36 28,34.21 28,32 C28,29.79 29.791,28 32,28 C34.209,28 36,29.79 36,32 C36,33.06 35.579,34.08 34.828,34.83 C34.078,35.58 33.061,36 32,36 Z M28.894,22.6 C28.828,22.56 28.743,22.55 28.666,22.57 C25.82,23.59 23.581,25.83 22.569,28.67 C22.541,28.75 22.553,28.83 22.6,28.9 C22.649,28.96 22.726,29 22.807,29 L26.663,29 C26.752,29 26.834,28.95 26.88,28.88 C27.379,28.06 28.065,27.38 28.88,26.88 C28.955,26.83 29,26.75 29,26.66 L29,22.81 C29,22.73 28.96,22.65 28.894,22.6 Z M22.572,35.33 C22.544,35.26 22.556,35.17 22.602,35.11 C22.649,35.04 22.726,35 22.807,35 L26.663,35 C26.75,35 26.831,35.05 26.877,35.12 C27.376,35.94 28.062,36.62 28.877,37.12 C28.951,37.17 28.997,37.25 28.997,37.33 L28.997,41.19 C28.997,41.27 28.957,41.35 28.891,41.39 C28.824,41.44 28.739,41.45 28.663,41.42 C25.821,40.41 23.585,38.18 22.572,35.33 Z M35.106,41.4 C35.173,41.44 35.258,41.46 35.334,41.43 C38.174,40.41 40.409,38.18 41.421,35.34 C41.449,35.26 41.437,35.18 41.39,35.11 C41.344,35.04 41.27,35.01 41.19,35 L37.334,35 C37.247,35 37.166,35.05 37.12,35.12 C36.621,35.94 35.935,36.62 35.12,37.12 C35.045,37.17 35,37.25 35,37.34 L35,41.19 C35,41.28 35.04,41.35 35.106,41.4 Z" id="Shape"></path>
            </g>
        </g>
    </g>
</svg>