<?xml version="1.0" encoding="UTF-8"?>
<svg width="64px" height="64px" viewBox="0 0 64 64" version="1.1" xmlns="http://www.w3.org/2000/svg" xmlns:xlink="http://www.w3.org/1999/xlink">
    <title>ico-orange</title>
    <g id="_PWA---Local" stroke="none" stroke-width="1" fill="none" fill-rule="evenodd">
        <g id="COSITES" transform="translate(-17886.000000, -7771.000000)" fill="#FF9300" fill-rule="nonzero">
            <g id="ico-orange" transform="translate(17886.000000, 7771.000000)">
                <circle id="Oval" opacity="0.1" cx="32" cy="32" r="32"></circle>
                <path d="M19.612,30.75 C19.012,30.42 18.832,29.68 19.168,29.11 L20.968,26 C21.1,25.76 21.304,25.59 21.532,25.5 L30.928,20.22 C31.12,20.07 31.36,20 31.612,20 C31.864,20 32.104,20.07 32.296,20.22 L41.776,25.54 C42.004,25.66 42.196,25.86 42.304,26.1 L44.044,29.12 C44.38,29.7 44.176,30.43 43.612,30.75 L42.412,31.45 L42.412,37.4 C42.412,37.86 42.16,38.25 41.776,38.46 L32.296,43.78 C32.104,43.93 31.864,44 31.612,44 C31.36,44 31.12,43.93 30.928,43.78 L21.448,38.46 C21.064,38.25 20.812,37.86 20.812,37.4 L20.812,30.75 C20.452,30.96 19.996,30.97 19.612,30.75 Z M31.612,22.58 L31.612,30.62 L38.764,26.6 L31.612,22.58 Z M23.212,36.69 L30.412,40.75 L30.412,32.7 L23.212,28.65 L23.212,36.69 Z M40.012,36.69 L40.012,32.83 L34.012,36.31 C33.616,36.52 33.172,36.51 32.812,36.32 L32.812,40.75 L40.012,36.69 Z M33.832,33.63 L41.368,29.28 L40.672,28.06 L33.136,32.42 L33.832,33.63 Z" id="Shape"></path>
            </g>
        </g>
    </g>
</svg>